<svg width="40" height="17" viewBox="0 0 40 17" fill="none" xmlns="http://www.w3.org/2000/svg">
<g clip-path="url(#clip0)">
<rect width="40" height="16.48" fill="white"/>
<g clip-path="url(#clip1)">
<path d="M9.54704 16.4837C7.03175 16.4837 4.66042 15.7999 2.86964 14.558C1.9804 13.9412 1.2793 13.2187 0.78654 12.4105C0.264521 11.5549 0 10.6426 0 9.69949C0 8.75611 0.264521 7.84404 0.78654 6.98844C1.27959 6.18025 1.9804 5.45779 2.86964 4.84097C4.66042 3.59912 7.03204 2.91529 9.54704 2.91529C12.062 2.91529 14.4336 3.59912 16.2244 4.84097C17.1137 5.45779 17.8148 6.18025 18.3075 6.98844C18.8293 7.84404 19.0941 8.75611 19.0941 9.69949C19.0941 10.6429 18.8296 11.5549 18.3075 12.4105C17.8145 13.2187 17.1137 13.9412 16.2244 14.558C14.4336 15.7999 12.0623 16.4837 9.54704 16.4837ZM9.54704 3.98449C7.2477 3.98449 5.09261 4.60073 3.47886 5.71968C1.92509 6.79737 1.0692 8.21068 1.0692 9.69949C1.0692 11.1883 1.92509 12.6016 3.47886 13.6793C5.09232 14.7982 7.2474 15.4145 9.54704 15.4145C11.8467 15.4145 14.0015 14.7982 15.6152 13.6793C17.169 12.6016 18.0249 11.1883 18.0249 9.69949C18.0249 8.21068 17.169 6.79737 15.6152 5.71968C14.0018 4.60073 11.8467 3.98449 9.54704 3.98449Z" fill="#00C6FF"/>
<path d="M9.50314 14.0378C11.9353 14.0378 13.9069 12.0661 13.9069 9.63395C13.9069 7.20179 11.9353 5.23014 9.50314 5.23014C7.07099 5.23014 5.09934 7.20179 5.09934 9.63395C5.09934 12.0661 7.07099 14.0378 9.50314 14.0378Z" fill="#00C6FF"/>
<path d="M1.33586 2.4471L0.46497 3.06784L2.42534 5.81823L3.29623 5.19749L1.33586 2.4471Z" fill="#00C6FF"/>
<path d="M5.77539 0.447769L4.77445 0.824445L5.79853 3.54574L6.79947 3.16907L5.77539 0.447769Z" fill="#00C6FF"/>
<path d="M9.71537 -1.51997e-05L9.59824 2.89686L10.6669 2.94007L10.784 0.0431924L9.71537 -1.51997e-05Z" fill="#00C6FF"/>
<path d="M14.9594 1.08139L13.6134 3.53932L14.5515 4.053L15.8974 1.59507L14.9594 1.08139Z" fill="#00C6FF"/>
<path d="M19.2848 4.01249L16.9438 6.11943L17.6593 6.91438L20.0003 4.80745L19.2848 4.01249Z" fill="#00C6FF"/>
</g>
<path d="M22.2772 6.97835L20.1246 10.268L20.9679 11.1099L23.1204 7.82028L22.2772 6.97835Z" fill="#00C6FF"/>
<path d="M25.5514 10.0745L24.3481 13.3987L25.338 13.9455L26.5413 10.6212L25.5514 10.0745Z" fill="#00C6FF"/>
<path d="M29.3559 11.1732L29.2968 14.8033L30.3808 14.8302L30.4399 11.2002L29.3559 11.1732Z" fill="#00C6FF"/>
<path d="M34.4398 10.1031L33.4591 10.6742L34.6705 13.8486L35.6512 13.2775L34.4398 10.1031Z" fill="#00C6FF"/>
<path d="M37.7603 6.7607L36.9875 7.70027L39.2273 10.5112L40.0001 9.57167L37.7603 6.7607Z" fill="#00C6FF"/>
<path d="M29.679 11.5866C27.129 11.5866 24.7249 10.7302 22.9093 9.17493C22.0078 8.40245 21.297 7.49768 20.7974 6.48554C20.2682 5.41367 20 4.27144 20 3.09H21.0843C21.0843 4.95451 21.952 6.72447 23.5272 8.07411C25.163 9.47542 27.3479 10.2472 29.6793 10.2472C32.0107 10.2472 34.1953 9.47542 35.8314 8.07411C37.4063 6.72447 38.2741 4.95451 38.2741 3.09H39.3583C39.3583 4.27144 39.0902 5.41367 38.5609 6.48518C38.0611 7.49732 37.3506 8.40209 36.4487 9.17457C34.6332 10.7298 32.2291 11.5866 29.679 11.5866Z" fill="#00C6FF"/>
</g>
<defs>
<clipPath id="clip0">
<rect width="40" height="16.48" fill="white"/>
</clipPath>
<clipPath id="clip1">
<rect width="20" height="16.4837" fill="white"/>
</clipPath>
</defs>
</svg>
