<svg width="34" height="17" viewBox="0 0 34 17" fill="none" xmlns="http://www.w3.org/2000/svg">
<g clip-path="url(#clip0)">
<rect width="34" height="17" fill="white"/>
<path d="M25.525 16.5C30.2332 16.5 34.05 12.8063 34.05 8.25C34.05 3.69365 30.2332 0 25.525 0C20.8168 0 17 3.69365 17 8.25C17 12.8063 20.8168 16.5 25.525 16.5Z" fill="#00C6FF"/>
<path d="M29.7617 8.25C29.7617 10.51 27.8603 12.35 25.525 12.35C23.1897 12.35 21.2883 10.51 21.2883 8.25C21.2883 5.99 23.1897 4.15 25.525 4.15C27.8603 4.15 29.7617 5.99 29.7617 8.25Z" fill="white"/>
<path d="M16 8.25C16 12.5302 12.5302 16 8.25 16C3.96979 16 0.5 12.5302 0.5 8.25C0.5 3.96979 3.96979 0.5 8.25 0.5C12.5302 0.5 16 3.96979 16 8.25Z" fill="white" stroke="#00C6FF"/>
<path d="M11.85 8.25C11.85 10.2339 10.2339 11.85 8.25 11.85C6.26614 11.85 4.65 10.2339 4.65 8.25C4.65 6.26614 6.26614 4.65 8.25 4.65C10.2339 4.65 11.85 6.26614 11.85 8.25Z" fill="white" stroke="#00C6FF"/>
</g>
<defs>
<clipPath id="clip0">
<rect width="34" height="17" fill="white"/>
</clipPath>
</defs>
</svg>
