<svg width="20" height="13" viewBox="0 0 20 13" fill="none" xmlns="http://www.w3.org/2000/svg">
<path d="M2.27715 4.55055L0.124634 7.74437L0.967878 8.56178L3.1204 5.36796L2.27715 4.55055Z" fill="#00C6FF"/>
<path d="M5.55147 7.5565L4.34814 10.7839L5.33798 11.3147L6.54131 8.08731L5.55147 7.5565Z" fill="#00C6FF"/>
<path d="M9.35589 8.62325L9.29681 12.1476L10.3809 12.1737L10.44 8.64938L9.35589 8.62325Z" fill="#00C6FF"/>
<path d="M14.4398 7.58429L13.459 8.13876L14.6705 11.2207L15.6512 10.6662L14.4398 7.58429Z" fill="#00C6FF"/>
<path d="M17.7603 4.33923L16.9875 5.25144L19.2273 7.98054L20.0001 7.06833L17.7603 4.33923Z" fill="#00C6FF"/>
<path d="M9.67902 9.02453C7.12896 9.02453 4.72485 8.19308 2.90931 6.68315C2.00777 5.93317 1.29698 5.05476 0.797413 4.0721C0.268178 3.03144 0 1.92248 0 0.775452H1.08428C1.08428 2.58565 1.952 4.30406 3.52725 5.61439C5.16301 6.97489 7.34789 7.72416 9.67931 7.72416C12.0107 7.72416 14.1953 6.97489 15.8314 5.61439C17.4063 4.30406 18.2741 2.58565 18.2741 0.775452H19.3583C19.3583 1.92248 19.0902 3.03144 18.5609 4.07174C18.0611 5.0544 17.3506 5.93282 16.4487 6.6828C14.6332 8.19272 12.2291 9.02453 9.67902 9.02453Z" fill="#00C6FF"/>
</svg>
