<svg width="20" height="20" viewBox="0 0 20 20" fill="none" xmlns="http://www.w3.org/2000/svg">
<g clip-path="url(#clip0)">
<path d="M18.2917 15.5916C18.6529 15.057 18.9631 14.4854 19.2138 13.8927C19.4692 13.2888 19.6654 12.6569 19.7969 12.0144C19.9317 11.3557 20 10.6779 20 9.99997C20 9.32204 19.9317 8.64426 19.7969 7.98551C19.6654 7.34306 19.4692 6.71115 19.2138 6.10724C18.9632 5.5145 18.6529 4.94291 18.2917 4.4083C17.9341 3.87896 17.5234 3.38125 17.0711 2.92894C16.6187 2.47663 16.121 2.06594 15.5917 1.70832C15.0571 1.34715 14.4854 1.03691 13.8928 0.786172C13.2889 0.530779 12.6569 0.334613 12.0145 0.20315C11.3557 0.068333 10.678 0 9.99997 0C9.32204 0 8.64426 0.068333 7.98551 0.20315C7.34306 0.334613 6.71115 0.530779 6.10724 0.786172C5.5145 1.03684 4.94291 1.34715 4.4083 1.70832C3.87896 2.06594 3.38125 2.47663 2.92894 2.92894C2.47663 3.38125 2.06594 3.87896 1.70832 4.4083C1.34715 4.94291 1.03691 5.51457 0.786172 6.10724C0.530779 6.71108 0.334613 7.34306 0.20315 7.98551C0.068333 8.64426 0 9.32204 0 9.99997C0 10.6779 0.068333 11.3557 0.20315 12.0144C0.334613 12.6569 0.530779 13.2888 0.786172 13.8927C1.03684 14.4854 1.34715 15.057 1.70832 15.5916C2.06594 16.121 2.47663 16.6187 2.92894 17.071C3.38125 17.5233 3.87896 17.934 4.4083 18.2916C4.94291 18.6528 5.51457 18.963 6.10724 19.2138C6.71108 19.4692 7.34306 19.6653 7.98551 19.7968C8.64426 19.9316 9.32204 19.9999 9.99997 19.9999C10.6779 19.9999 11.3557 19.9316 12.0144 19.7968C12.6569 19.6653 13.2888 19.4692 13.8927 19.2138C14.4854 18.9631 15.057 18.6528 15.5916 18.2916C16.121 17.934 16.6187 17.5233 17.071 17.071C17.5234 16.6187 17.9341 16.121 18.2917 15.5916ZM15.8782 15.8782C15.5019 16.2546 15.0877 16.5963 14.6474 16.8938C14.203 17.194 13.728 17.4518 13.2356 17.6601C12.2113 18.0934 11.1227 18.313 10 18.313C8.8774 18.313 7.7888 18.0934 6.76449 17.6601C6.27205 17.4518 5.79708 17.194 5.35271 16.8938C4.91231 16.5963 4.4982 16.2546 4.12182 15.8782C3.74544 15.5018 3.40371 15.0876 3.10621 14.6473C2.80597 14.2029 2.54818 13.7279 2.33989 13.2355C1.90661 12.2112 1.68696 11.1226 1.68696 9.99997C1.68696 8.87733 1.90661 7.78873 2.33989 6.76442C2.54818 6.27205 2.80597 5.79701 3.10621 5.35264C3.40371 4.91224 3.74544 4.49813 4.12182 4.12175C4.4982 3.74537 4.91238 3.40364 5.35271 3.10614C5.79708 2.8059 6.27205 2.54811 6.76449 2.33982C7.7888 1.90655 8.8774 1.68689 10 1.68689C11.1227 1.68689 12.2113 1.90655 13.2356 2.33982C13.728 2.54811 14.203 2.8059 14.6474 3.10614C15.0878 3.40364 15.5019 3.74537 15.8782 4.12175C16.2546 4.49813 16.5964 4.91231 16.8939 5.35264C17.1941 5.79701 17.4519 6.27198 17.6602 6.76442C18.0935 7.78873 18.3131 8.87733 18.3131 9.99997C18.3131 11.1226 18.0935 12.2112 17.6602 13.2355C17.4519 13.7279 17.1941 14.2029 16.8939 14.6473C16.5963 15.0877 16.2546 15.5018 15.8782 15.8782Z" fill="#72F1A5"/>
<path d="M13.2139 13.2272C12.7612 13.5898 12.2599 13.8717 11.7239 14.065C11.171 14.2644 10.591 14.3654 9.99996 14.3654C9.409 14.3654 8.82899 14.2644 8.27603 14.065C7.74005 13.8717 7.23872 13.5899 6.78593 13.2272C6.42236 12.936 5.89151 12.9947 5.60031 13.3582C5.30911 13.7218 5.36779 14.2527 5.73136 14.5439C6.32931 15.0227 6.99291 15.3955 7.70376 15.6518C8.4407 15.9176 9.21324 16.0523 9.99989 16.0523C10.7865 16.0523 11.5591 15.9176 12.296 15.6518C13.0069 15.3955 13.6705 15.0227 14.2684 14.5438C14.632 14.2526 14.6906 13.7218 14.3994 13.3582C14.1082 12.9946 13.5775 12.9359 13.2139 13.2272Z" fill="#72F1A5"/>
<path d="M7.80179 9.23946C7.80179 8.39909 7.12045 7.71777 6.28011 7.71777C5.43965 7.71777 4.7583 8.39909 4.7583 9.23946C4.7583 10.0799 5.43965 10.7612 6.28011 10.7612C7.12051 10.7611 7.80179 10.0798 7.80179 9.23946Z" fill="#72F1A5"/>
<path d="M13.72 7.71777C12.8796 7.71777 12.1982 8.39912 12.1982 9.23952C12.1982 10.08 12.8796 10.7613 13.72 10.7613C14.5605 10.7613 15.2418 10.08 15.2418 9.23952C15.2417 8.39919 14.5605 7.71777 13.72 7.71777Z" fill="#72F1A5"/>
</g>
<defs>
<clipPath id="clip0">
<rect width="20" height="19.9999" fill="white"/>
</clipPath>
</defs>
</svg>
