<svg width="20" height="17" viewBox="0 0 20 17" fill="none" xmlns="http://www.w3.org/2000/svg">
<g clip-path="url(#clip0)">
<path d="M9.54704 16.4839C7.03175 16.4839 4.66042 15.8001 2.86964 14.5583C1.9804 13.9414 1.2793 13.219 0.78654 12.4108C0.264521 11.5552 0 10.6428 0 9.69973C0 8.75635 0.264521 7.84428 0.78654 6.98868C1.27959 6.18049 1.9804 5.45803 2.86964 4.8412C4.66042 3.59936 7.03204 2.91553 9.54704 2.91553C12.062 2.91553 14.4336 3.59936 16.2244 4.8412C17.1137 5.45803 17.8148 6.18049 18.3075 6.98868C18.8293 7.84428 19.0941 8.75635 19.0941 9.69973C19.0941 10.6431 18.8296 11.5552 18.3075 12.4108C17.8145 13.219 17.1137 13.9414 16.2244 14.5583C14.4336 15.8001 12.0623 16.4839 9.54704 16.4839ZM9.54704 3.98473C7.2477 3.98473 5.09261 4.60097 3.47886 5.71992C1.92509 6.79761 1.0692 8.21092 1.0692 9.69973C1.0692 11.1885 1.92509 12.6018 3.47886 13.6795C5.09232 14.7985 7.2474 15.4147 9.54704 15.4147C11.8467 15.4147 14.0015 14.7985 15.6152 13.6795C17.169 12.6018 18.0249 11.1885 18.0249 9.69973C18.0249 8.21092 17.169 6.79761 15.6152 5.71992C14.0018 4.60097 11.8467 3.98473 9.54704 3.98473Z" fill="#00C6FF"/>
<path d="M9.50317 14.0376C11.9353 14.0376 13.907 12.0659 13.907 9.63379C13.907 7.20163 11.9353 5.22998 9.50317 5.22998C7.07101 5.22998 5.09937 7.20163 5.09937 9.63379C5.09937 12.0659 7.07101 14.0376 9.50317 14.0376Z" fill="#00C6FF"/>
<path d="M1.33586 2.44714L0.464966 3.06787L2.42533 5.81826L3.29622 5.19753L1.33586 2.44714Z" fill="#00C6FF"/>
<path d="M5.77535 0.447542L4.77441 0.824219L5.7985 3.54552L6.79944 3.16884L5.77535 0.447542Z" fill="#00C6FF"/>
<path d="M9.71539 9.73339e-05L9.59827 2.89697L10.6669 2.94018L10.784 0.0433049L9.71539 9.73339e-05Z" fill="#00C6FF"/>
<path d="M14.9594 1.08162L13.6134 3.53955L14.5515 4.05323L15.8974 1.5953L14.9594 1.08162Z" fill="#00C6FF"/>
<path d="M19.2848 4.01269L16.9438 6.11963L17.6593 6.91458L20.0003 4.80765L19.2848 4.01269Z" fill="#00C6FF"/>
</g>
<defs>
<clipPath id="clip0">
<rect width="20" height="16.4837" fill="white"/>
</clipPath>
</defs>
</svg>
