<svg width="20" height="20" viewBox="0 0 20 20" fill="none" xmlns="http://www.w3.org/2000/svg">
<g clip-path="url(#clip0)">
<path d="M2.92902 2.92875C3.84723 2.01054 4.91657 1.28978 6.10748 0.786176C7.34081 0.264647 8.65031 0 10.0001 0C11.3497 0 12.6595 0.264647 13.8928 0.786176C15.0837 1.28978 16.153 2.01084 17.0713 2.92875C17.9895 3.84695 18.7102 4.91629 19.2141 6.1072C19.7354 7.34053 20 8.65033 20 9.99985C20 11.3494 19.7354 12.6592 19.2138 13.8925C18.7102 15.0834 17.9892 16.1528 17.071 17.071C16.1528 17.9892 15.0834 18.7099 13.8925 19.2138C12.6592 19.7357 11.3494 20 9.99984 20C8.65031 20 7.34052 19.7354 6.10719 19.2138C4.91627 18.7102 3.84693 17.9892 2.92872 17.071C2.01052 16.1528 1.28976 15.0834 0.785854 13.8925C0.264324 12.6592 -0.000323754 11.3494 -0.000323754 9.99985C-0.000323754 8.65033 0.264324 7.34053 0.785854 6.1072C1.29006 4.91629 2.01082 3.84695 2.92902 2.92875ZM4.12173 15.8783C5.69199 17.4485 7.7796 18.3129 9.99984 18.3129C12.2204 18.3129 14.308 17.4482 15.8779 15.8783C17.4482 14.308 18.3126 12.2204 18.3126 10.0001C18.3126 7.77962 17.4479 5.69201 15.8779 4.12205C14.308 2.55209 12.2204 1.68735 9.99984 1.68735C7.77931 1.68735 5.69169 2.55209 4.12173 4.12205C2.55177 5.69231 1.68703 7.77962 1.68703 10.0001C1.68703 12.2204 2.55177 14.308 4.12173 15.8783Z" fill="#FB8179"/>
<path d="M5.7314 14.5509C6.96354 13.564 8.43971 13.0425 10.0001 13.0425C11.5605 13.0425 13.0367 13.564 14.2688 14.5512C14.6324 14.8424 14.6912 15.3732 14.4 15.7368C14.2333 15.9446 13.9884 16.0531 13.741 16.0531C13.5561 16.0531 13.3698 15.9924 13.2141 15.8679C12.2846 15.1232 11.1731 14.7295 10.0001 14.7295C8.82713 14.7295 7.71596 15.1232 6.78611 15.8679C6.4226 16.1591 5.89181 16.1006 5.60057 15.7368C5.30904 15.3729 5.36789 14.8418 5.7314 14.5509Z" fill="#FB8179"/>
<path d="M12.1983 9.23964C12.1983 8.39911 12.8796 7.71777 13.7202 7.71777C14.5604 7.71777 15.2421 8.39911 15.2421 9.23964C15.2421 10.0799 14.5607 10.7612 13.7202 10.7612C12.8796 10.7612 12.1983 10.0799 12.1983 9.23964Z" fill="#FB8179"/>
<path d="M6.28013 7.71777C7.12067 7.71777 7.802 8.39911 7.802 9.23964C7.802 10.0799 7.12067 10.7612 6.28013 10.7612C5.43959 10.7612 4.75826 10.0799 4.75826 9.23964C4.75826 8.39911 5.43959 7.71777 6.28013 7.71777Z" fill="#FB8179"/>
</g>
<defs>
<clipPath id="clip0">
<rect width="20" height="20" fill="white" transform="matrix(-1 0 0 1 20 0)"/>
</clipPath>
</defs>
</svg>
