<svg width="112" height="112" viewBox="0 0 112 112" fill="none" xmlns="http://www.w3.org/2000/svg">
<path d="M16.0936 71.161C8.83331 71.161 2.22662 66.204 0.450599 58.8421C-1.63011 50.2172 3.69405 41.5064 12.3189 39.4244C20.9438 37.3424 29.6547 42.6679 31.7367 51.2928C33.8174 59.9177 28.4932 68.6285 19.8683 70.7105C18.6053 71.0152 17.3397 71.161 16.0936 71.161ZM19.4478 69.0347H19.4504H19.4478ZM16.0936 42.5611C15.1249 42.5611 14.1431 42.6744 13.1601 42.9113C6.45704 44.5285 2.32037 51.298 3.93754 58.001C5.55471 64.7041 12.3229 68.842 19.0272 67.2249C25.7302 65.6077 29.8682 58.8382 28.2511 52.1352C26.8696 46.4139 21.7355 42.5611 16.0936 42.5611Z" fill="#00C6FF"/>
<path d="M54.3234 56.6182C53.7518 56.6182 53.1893 56.3461 52.8417 55.8383C52.2818 55.0206 52.4914 53.9047 53.3078 53.3461L66.822 44.0923L58.576 37.2903L50.7818 55.2992C50.3886 56.2081 49.3326 56.626 48.4238 56.2328C47.5149 55.8396 47.0969 54.7836 47.4902 53.8748L56.231 33.6771C56.4549 33.1602 56.9093 32.7774 57.4562 32.6459C58.0031 32.5144 58.5825 32.6472 59.0174 33.0065L70.9417 42.8424C71.3766 43.2004 71.6175 43.7434 71.5914 44.3059C71.5667 44.8684 71.2776 45.3866 70.8128 45.7056L55.3325 56.307C55.0252 56.5154 54.6724 56.6182 54.3234 56.6182Z" fill="#00C6FF"/>
<path d="M59.256 29.3971C59.1219 29.3971 58.9852 29.3815 58.8484 29.3503C57.8836 29.1263 57.2834 28.1628 57.5073 27.198L60.1349 15.883C60.3588 14.9182 61.3211 14.3179 62.2872 14.5419C63.252 14.7658 63.8523 15.7293 63.6283 16.6942L61.0008 28.0091C60.8081 28.8373 60.0711 29.3971 59.256 29.3971Z" fill="#00C6FF"/>
<path d="M69.2741 33.7304C68.8444 33.7304 68.4147 33.5768 68.071 33.2669C67.3366 32.6028 67.2806 31.4687 67.9447 30.7344L75.7402 22.1225C76.4042 21.3881 77.5383 21.3321 78.2727 21.9962C79.0071 22.6603 79.063 23.7944 78.399 24.5287L70.6035 33.1406C70.2506 33.5312 69.7637 33.7304 69.2741 33.7304Z" fill="#00C6FF"/>
<path d="M75.377 42.8619C74.7142 42.8619 74.0788 42.4934 73.7663 41.8593C73.3288 40.9713 73.696 39.8957 74.584 39.4583L85.0084 34.332C85.8977 33.8945 86.9719 34.2617 87.4094 35.1497C87.8469 36.0377 87.4797 37.1132 86.5917 37.5507L76.1673 42.677C75.9121 42.8033 75.6426 42.8619 75.377 42.8619Z" fill="#00C6FF"/>
<path d="M40.0674 90.5188C39.0505 90.5188 38.0205 90.313 37.0401 89.8807L15.3698 80.3171C14.4635 79.9173 14.0534 78.8587 14.4531 77.9525C14.8528 77.0463 15.9114 76.6361 16.8177 77.0358L38.488 86.5995C40.3825 87.4355 42.6273 86.6568 43.5973 84.8274L56.2651 60.9254C57.0385 59.4853 56.4995 57.6949 55.0685 56.9254C53.648 56.1624 51.8628 56.691 51.0881 58.1051L41.514 76.0033C41.0635 76.847 40.0296 77.1882 39.1651 76.778L29.6261 72.2586C28.7316 71.8341 28.3488 70.7651 28.7733 69.8706C29.1964 68.9761 30.2667 68.5945 31.1612 69.0177L39.1559 72.8054L47.9332 56.3968C49.6597 53.2471 53.618 52.0739 56.7651 53.7653C59.9382 55.4697 61.1322 59.4384 59.4291 62.6115L46.7652 86.5045C45.4228 89.0422 42.7913 90.5188 40.0674 90.5188Z" fill="#00C6FF"/>
<path d="M13.4219 111.943C12.6107 111.943 11.8763 111.39 11.6797 110.567L5.68366 85.5265C4.64201 81.175 4.63159 76.5709 5.65241 72.2142L6.90631 66.8666C7.13286 65.9031 8.099 65.3041 9.06123 65.5307C10.0261 65.7572 10.6237 66.7221 10.3971 67.6856L9.14326 73.0332C8.24874 76.8496 8.25785 80.8808 9.1706 84.6906L15.1666 109.731C15.3971 110.694 14.8033 111.662 13.8398 111.892C13.7005 111.927 13.5599 111.943 13.4219 111.943Z" fill="#00C6FF"/>
<path d="M47.3617 110.966C46.5843 110.966 45.8682 110.456 45.6403 109.672L39.9711 90.123C39.6951 89.1725 40.2432 88.1777 41.1938 87.9016C42.143 87.6256 43.139 88.1725 43.4151 89.1243L49.0843 108.674C49.3603 109.624 48.8122 110.619 47.8616 110.895C47.695 110.943 47.527 110.966 47.3617 110.966Z" fill="#00C6FF"/>
<path d="M37.2535 69.6675C36.9684 69.6675 36.6793 69.5998 36.4098 69.4552L28.2406 65.0933C27.3669 64.6272 27.0375 63.5399 27.5036 62.6662C27.9698 61.7926 29.0557 61.4631 29.9294 61.9293L36.54 65.4592L41.2652 56.9202C41.2834 56.8877 41.3029 56.8564 41.3225 56.8239C43.299 53.7236 47.0229 52.2432 50.5893 53.1403L51.3341 53.3278C52.295 53.57 52.877 54.5439 52.6362 55.5049C52.394 56.4658 51.4187 57.0478 50.4591 56.8069L49.7143 56.6194C47.6662 56.1038 45.5269 56.9437 44.3745 58.7093L38.8225 68.7417C38.497 69.3328 37.885 69.6675 37.2535 69.6675Z" fill="#00C6FF"/>
<path d="M67.2701 46.384C67.1958 46.384 67.1203 46.3788 67.0448 46.3696L55.028 44.8671C54.0449 44.7447 53.3483 43.8475 53.4707 42.8658C53.5931 41.8827 54.4903 41.1861 55.472 41.3085L67.4888 42.8111C68.4719 42.9335 69.1685 43.8306 69.0461 44.8124C68.9341 45.7199 68.162 46.384 67.2701 46.384Z" fill="#00C6FF"/>
<path d="M60.5983 51.7328C60.5241 51.7328 60.4486 51.7276 60.373 51.7185L52.0619 50.6794C51.0789 50.557 50.3823 49.6599 50.5047 48.6782C50.6271 47.6951 51.5216 46.9985 52.5059 47.1209L60.8157 48.1599C61.7988 48.2823 62.4954 49.1795 62.373 50.1612C62.261 51.0688 61.4889 51.7328 60.5983 51.7328Z" fill="#00C6FF"/>
<path d="M71.9772 16.0822C71.7467 16.0822 71.5137 16.0379 71.2884 15.9442C70.3743 15.5627 69.9421 14.5132 70.3236 13.5992L72.6334 8.05626C73.61 5.71124 76.1803 4.49511 78.6151 5.22687L82.593 6.42347C83.0982 6.57581 83.4966 6.40003 83.6893 6.28154C83.882 6.16306 84.2192 5.88832 84.313 5.3701C84.5643 3.98079 85.4015 2.76466 86.6072 2.03159C87.8142 1.29853 89.2791 1.11624 90.628 1.5329L93.4952 2.41701C93.9274 2.54982 94.3949 2.45997 94.7464 2.17482L96.0602 1.10713C97.2386 0.148804 98.7659 -0.210567 100.248 0.120159C101.731 0.450884 102.96 1.42483 103.62 2.792C104.051 3.68392 103.677 4.75552 102.785 5.1865C101.894 5.61749 100.822 5.2438 100.391 4.35188C100.144 3.83886 99.706 3.6735 99.4677 3.62012C99.2295 3.56673 98.7633 3.53158 98.3219 3.89095L97.0081 4.95864C95.7256 6.0003 94.0173 6.33232 92.4392 5.84535L89.572 4.96125C89.0668 4.805 88.6658 4.98078 88.4718 5.09796C88.2778 5.21645 87.9379 5.49119 87.8442 6.01202C87.5942 7.39481 86.7622 8.60834 85.5643 9.3414C84.3664 10.0758 82.9081 10.2646 81.5617 9.85963L77.5839 8.66303C76.9185 8.46251 76.2141 8.79584 75.9459 9.43776L73.636 14.9807C73.3457 15.6668 72.679 16.0822 71.9772 16.0822Z" fill="#00C6FF"/>
<path d="M82.8036 29.1849C82.4443 29.1849 82.0823 29.0769 81.7659 28.8529C80.9586 28.2787 80.7698 27.1602 81.3427 26.3529L82.4989 24.7266C83.3362 23.5483 84.6435 22.8022 86.0835 22.6811C87.5249 22.56 88.9377 23.0769 89.9598 24.0991C90.2228 24.3621 90.5718 24.4988 90.9455 24.4832C91.3179 24.4675 91.6551 24.3022 91.896 24.017L91.9689 23.9311C93.672 21.9129 96.7306 21.6173 98.7878 23.2722L101.613 25.5443C102.385 26.1654 102.508 27.2943 101.887 28.0651C101.266 28.8373 100.138 28.9597 99.3659 28.3386L96.5404 26.0652C95.9884 25.6212 95.1681 25.7006 94.711 26.2423L94.6381 26.3282C93.7553 27.3751 92.465 28.0079 91.0978 28.0651C89.7319 28.1224 88.3921 27.6016 87.4247 26.6342C87.0497 26.2592 86.6122 26.2344 86.3843 26.254C86.1578 26.2735 85.7294 26.3699 85.4221 26.8021L84.2659 28.4297C83.9169 28.9232 83.3635 29.1849 82.8036 29.1849Z" fill="#00C6FF"/>
<path d="M106.534 57.9515C105.556 57.9515 104.757 57.1676 104.741 56.1859L104.684 52.5596C104.672 51.8513 104.087 51.2705 103.379 51.2653L103.266 51.264C101.896 51.2536 100.586 50.6651 99.6681 49.6508C98.7501 48.6365 98.2957 47.2732 98.422 45.9112C98.4702 45.3826 98.2097 45.0297 98.0496 44.8683C97.8894 44.7055 97.5405 44.4386 97.0131 44.479L95.0223 44.6287C94.034 44.7042 93.1733 43.9633 93.0991 42.9751C93.0249 41.9881 93.7645 41.1261 94.7528 41.0519L96.7436 40.9022C98.1837 40.7928 99.5938 41.3227 100.608 42.354C101.622 43.3852 102.126 44.8019 101.994 46.242C101.96 46.6131 102.078 46.9698 102.328 47.2459C102.578 47.5219 102.921 47.6755 103.293 47.6781L103.405 47.6794C106.046 47.7003 108.228 49.8643 108.27 52.5036L108.327 56.1299C108.342 57.1194 107.552 57.9358 106.563 57.9515C106.553 57.9515 106.543 57.9515 106.534 57.9515Z" fill="#00C6FF"/>
<path d="M88.2466 52.3645C89.033 51.5574 89.0161 50.2656 88.2089 49.4793C87.4017 48.693 86.11 48.7099 85.3237 49.517C84.5373 50.3242 84.5542 51.616 85.3614 52.4023C86.1686 53.1886 87.4603 53.1717 88.2466 52.3645Z" fill="#00C6FF"/>
<path d="M111.562 18.7714C111.804 17.6709 111.108 16.5825 110.007 16.3404C108.907 16.0982 107.819 16.794 107.576 17.8945C107.334 18.995 108.03 20.0834 109.131 20.3256C110.231 20.5677 111.319 19.8719 111.562 18.7714Z" fill="#00C6FF"/>
<path d="M94.8665 14.6111C95.0465 13.4987 94.2907 12.4509 93.1783 12.2709C92.0659 12.0908 91.0181 12.8466 90.838 13.959C90.6579 15.0715 91.4138 16.1192 92.5262 16.2993C93.6386 16.4794 94.6864 15.7236 94.8665 14.6111Z" fill="#00C6FF"/>
<path d="M107.234 42.6759C108.291 42.2872 108.834 41.1147 108.445 40.0571C108.056 38.9994 106.884 38.4571 105.826 38.8457C104.769 39.2344 104.226 40.4068 104.615 41.4645C105.003 42.5222 106.176 43.0645 107.234 42.6759Z" fill="#00C6FF"/>
<path d="M105.487 71.4097C106.614 71.4097 107.527 70.4962 107.527 69.3693C107.527 68.2425 106.614 67.329 105.487 67.329C104.36 67.329 103.447 68.2425 103.447 69.3693C103.447 70.4962 104.36 71.4097 105.487 71.4097Z" fill="#00C6FF"/>
<path d="M65.2286 5.8728C66.3554 5.8728 67.2689 4.9593 67.2689 3.83245C67.2689 2.70561 66.3554 1.79211 65.2286 1.79211C64.1017 1.79211 63.1882 2.70561 63.1882 3.83245C63.1882 4.9593 64.1017 5.8728 65.2286 5.8728Z" fill="#00C6FF"/>
<path d="M3.25661 50.5688C3.13682 50.5688 3.01573 50.557 2.89463 50.5323C1.92459 50.3331 1.2996 49.3852 1.49752 48.4151L8.74352 13.0718C8.89847 12.3179 9.51695 11.7463 10.2813 11.6526C11.043 11.5588 11.7839 11.9638 12.1172 12.6578L26.4308 42.5663C26.8579 43.4595 26.4803 44.5298 25.5871 44.9582C24.6939 45.3852 23.6236 45.0089 23.1952 44.1144L11.1862 19.0171L5.0118 49.1352C4.83732 49.9841 4.08993 50.5688 3.25661 50.5688Z" fill="#00C6FF"/>
<path d="M7.51947 32.0209C6.93484 32.0209 6.36193 31.7357 6.01819 31.2097C5.47523 30.3816 5.70699 29.2696 6.53511 28.7267L14.4556 23.5366C15.2837 22.9937 16.3957 23.2254 16.9386 24.0535C17.4816 24.8817 17.2498 25.9936 16.4217 26.5366L8.50123 31.7266C8.19785 31.9258 7.85671 32.0209 7.51947 32.0209Z" fill="#00C6FF"/>
<path d="M4.97797 42.1678C4.39334 42.1678 3.82043 41.8827 3.47668 41.3566C2.93372 40.5285 3.16549 39.4166 3.99361 38.8736L17.2461 30.1901C18.0742 29.6484 19.1861 29.8789 19.7291 30.707C20.2721 31.5351 20.0403 32.6471 19.2122 33.1901L5.95973 41.8736C5.65635 42.0728 5.3152 42.1678 4.97797 42.1678Z" fill="#00C6FF"/>
<path d="M9.85028 13.6213C9.41408 13.6213 8.97529 13.5718 8.5404 13.4715C7.03521 13.1252 5.75527 12.2124 4.93497 10.9026C4.11597 9.59269 3.85556 8.04193 4.20191 6.53673C4.54826 5.03154 5.46101 3.75031 6.77089 2.93131C8.08077 2.11231 9.63153 1.85189 11.1367 2.19824C12.6419 2.54459 13.9231 3.45734 14.7421 4.76722C15.5611 6.0771 15.8216 7.62787 15.4752 9.13306C15.1289 10.6382 14.2161 11.9195 12.9062 12.7385C11.9753 13.3218 10.9219 13.6213 9.85028 13.6213ZM9.83465 5.6357C9.4271 5.6357 9.02737 5.74898 8.67321 5.97033C8.17582 6.28153 7.82947 6.7685 7.69666 7.34011C7.56515 7.91172 7.6641 8.50155 7.9753 8.99894C8.28649 9.49633 8.77347 9.84268 9.34507 9.9755C9.91798 10.1083 10.5065 10.008 11.0039 9.69685C11.5013 9.38566 11.8476 8.89869 11.9805 8.32708C12.112 7.75547 12.013 7.16563 11.7018 6.66824C11.3906 6.17085 10.9036 5.8232 10.332 5.69169C10.168 5.65523 10 5.6357 9.83465 5.6357Z" fill="#00C6FF"/>
</svg>
