<svg width="93" height="112" viewBox="0 0 93 112" fill="none" xmlns="http://www.w3.org/2000/svg">
<path d="M87.762 88.6434C86.9745 88.6434 86.2042 88.2351 85.8237 87.5098C85.284 86.4743 85.7242 85.1617 86.7464 84.5956C86.8101 84.5598 86.8764 84.528 86.944 84.4988C88.0206 84.0401 89.3265 84.4962 89.8131 85.5555C90.2997 86.6162 89.7932 87.9049 88.7445 88.418C88.4329 88.5705 88.0961 88.6434 87.762 88.6434ZM88.0471 86.9384L88.8359 88.3597L88.0471 86.9384Z" fill="#FB8179"/>
<path d="M67.8625 111.143H25.1387C23.9494 111.143 22.9855 110.179 22.9855 108.99V93.6207L6.62202 89.1035C3.91731 88.3544 1.67531 86.3498 0.626574 83.7352C-0.365154 81.2652 -0.172907 78.5711 1.15558 76.3423C1.32794 76.0533 1.51886 75.7682 1.72835 75.4951L19.8526 48.5182C19.8804 48.4771 19.9096 48.4374 19.9401 48.3976C21.3176 46.6276 23.3939 45.612 25.6359 45.612C28.5249 45.612 31.0506 47.2507 32.228 49.8905C33.3881 52.4931 32.9479 55.4232 31.0824 57.5644L20.5937 71.9087L35.2588 74.799C36.4256 75.0284 37.1853 76.162 36.9546 77.3274C36.7252 78.4942 35.5943 79.2578 34.4262 79.0232L16.4425 75.4792C15.7213 75.3373 15.122 74.8362 14.8542 74.1507C14.5863 73.4652 14.6871 72.6896 15.1206 72.0957L27.6644 54.9406C27.7068 54.8836 27.7532 54.8266 27.801 54.7736C28.5912 53.8932 28.7755 52.7225 28.2942 51.6419C27.8116 50.5614 26.8185 49.917 25.6346 49.917C24.7515 49.917 23.9335 50.3068 23.378 50.9896L5.26303 77.9572C5.23387 77.9996 5.2047 78.042 5.17155 78.0818C5.05488 78.2303 4.95014 78.3854 4.85468 78.5459C3.98625 80.0056 4.33627 81.4176 4.62265 82.1309C5.1742 83.5058 6.35022 84.5599 7.76754 84.9523L25.7101 89.9057C26.6435 90.1642 27.2905 91.0127 27.2905 91.9819V106.837H65.7094V91.9819C65.7094 91.0127 66.3551 90.1642 67.2885 89.9057L85.231 84.951C86.6484 84.5599 87.8244 83.5058 88.3759 82.1309C88.6623 81.4176 89.0136 80.0043 88.1452 78.5485C88.0498 78.3854 87.9437 78.2303 87.827 78.0818C87.7952 78.0407 87.7647 77.9996 87.7355 77.9572L69.6206 50.9909C69.0651 50.3081 68.247 49.9183 67.364 49.9183C66.1814 49.9183 65.187 50.5627 64.7044 51.6432C64.2231 52.7238 64.4074 53.8945 65.1976 54.7749C65.2453 54.8279 65.2917 54.8849 65.3342 54.9419L77.8779 72.097C78.3128 72.691 78.4122 73.4666 78.1444 74.152C77.8766 74.8375 77.2773 75.34 76.5561 75.4805L58.5724 79.0245C57.4003 79.2592 56.2734 78.4942 56.044 77.3287C55.8146 76.162 56.573 75.0297 57.7397 74.8004L72.4049 71.91L61.9175 57.5658C60.052 55.4232 59.6118 52.4944 60.7719 49.8918C61.9493 47.2521 64.4737 45.6133 67.364 45.6133C69.6073 45.6133 71.6823 46.6276 73.0598 48.3989C73.0903 48.4387 73.1195 48.4785 73.1473 48.5196L91.2716 75.4964C91.481 75.7696 91.6733 76.0546 91.8456 76.3463C93.1728 78.5724 93.3651 81.2665 92.3733 83.7365C91.3246 86.3511 89.0826 88.3571 86.3779 89.1035L70.0144 93.6233V108.992C70.0144 110.179 69.0518 111.143 67.8625 111.143Z" fill="#FB8179"/>
<path d="M46.5006 69.6468C38.2897 69.6468 30.8411 65.1018 27.0624 57.7885C26.6872 57.0633 26.7549 56.1895 27.2375 55.5306L27.6657 54.9446C27.7081 54.8862 27.7545 54.8292 27.8023 54.7762C28.8059 53.6572 28.5646 52.444 28.4148 51.9734C28.0913 50.9644 27.3051 50.2286 26.308 50.0058C25.3243 49.7857 24.6256 48.912 24.6256 47.9044C24.6189 35.7013 34.4354 25.8848 46.5006 25.8848C58.5657 25.8848 68.3822 35.7013 68.3822 47.7678C68.3822 47.8222 68.3769 47.9468 68.373 48.0025C68.373 49.0101 67.6756 49.7871 66.6931 50.0072C65.6974 50.2299 64.9099 50.9657 64.5864 51.9747C64.4365 52.4454 64.1952 53.6598 65.1989 54.7775C65.2466 54.8306 65.293 54.8876 65.3355 54.9459L65.7637 55.5319C66.245 56.1909 66.3126 57.0659 65.9387 57.7898C62.1601 65.1032 54.7115 69.6468 46.5006 69.6468ZM31.5464 56.9771C34.7391 62.1678 40.354 65.3418 46.5006 65.3418C52.6472 65.3418 58.2621 62.1678 61.4547 56.9771C60.1554 55.1408 59.7895 52.8378 60.4842 50.6621C61.0755 48.8152 62.3709 47.2998 64.0348 46.4314C63.3891 37.4037 55.7722 30.1898 46.5006 30.1898C37.2568 30.1898 29.6558 37.3626 28.9743 46.4367C30.6329 47.3051 31.927 48.8179 32.5156 50.6634C33.2117 52.8378 32.8458 55.1408 31.5464 56.9771Z" fill="#FB8179"/>
<path d="M46.6318 24.608C46.3256 24.608 46.0153 24.5431 45.7197 24.4052C44.6431 23.9 44.179 22.618 44.6842 21.5414C45.4837 19.8363 45.2927 17.8317 44.187 16.3083C41.9516 13.2297 41.7713 9.13019 43.7296 5.86597L46.6226 1.04655C47.2338 0.0269787 48.5583 -0.305807 49.5765 0.308057C50.5961 0.919268 50.9262 2.24246 50.315 3.26203L47.4234 8.08145C46.3547 9.86338 46.4528 12.1001 47.6726 13.7812C49.6985 16.5721 50.0485 20.246 48.5848 23.371C48.2175 24.1493 47.4419 24.608 46.6318 24.608Z" fill="#FB8179"/>
<path d="M58.7699 26.7612C58.4636 26.7612 58.1534 26.6962 57.8577 26.5583C56.7811 26.0532 56.3171 24.7724 56.8209 23.6959C57.6191 21.9895 57.4295 19.9848 56.3237 18.4614C54.0883 15.3828 53.908 11.2834 55.8663 8.01781L58.7593 3.19838C59.3705 2.17881 60.6937 1.8447 61.7132 2.45989C62.7328 3.0711 63.063 4.39429 62.4517 5.41386L59.5601 10.2333C58.4915 12.0152 58.5896 14.2519 59.8093 15.9331C61.8352 18.724 62.1853 22.3979 60.7215 25.5215C60.3543 26.3025 59.5786 26.7612 58.7699 26.7612Z" fill="#FB8179"/>
<path d="M34.4952 26.7612C34.1889 26.7612 33.8787 26.6962 33.583 26.5583C32.5064 26.0532 32.0424 24.7711 32.5475 23.6945C33.347 21.9895 33.1561 19.9862 32.0503 18.4614C29.815 15.3828 29.6347 11.2834 31.5929 8.01781L34.4859 3.19838C35.0971 2.17881 36.4216 1.8447 37.4399 2.45989C38.4595 3.0711 38.7896 4.39429 38.1784 5.41386L35.2867 10.2333C34.2181 12.0152 34.3162 14.2519 35.536 15.9331C37.5619 18.724 37.9119 22.3979 36.4482 25.5229C36.0796 26.3025 35.3053 26.7612 34.4952 26.7612Z" fill="#FB8179"/>
<path d="M85.2562 111.143H7.74502C6.55574 111.143 5.59186 110.179 5.59186 108.99C5.59186 107.801 6.55574 106.837 7.74502 106.837H85.2562C86.4455 106.837 87.4094 107.801 87.4094 108.99C87.4094 110.179 86.4455 111.143 85.2562 111.143Z" fill="#FB8179"/>
</svg>
