<svg width="373" height="340" viewBox="0 0 373 340" fill="none" xmlns="http://www.w3.org/2000/svg">
<g clip-path="url(#clip0)">
<path d="M87.1654 136H71.3171V173.777H87.1654V136Z" fill="#000FFF"/>
<path d="M28.8051 152.788L17.5988 163.473L45.6145 190.185L56.8208 179.5L28.8051 152.788Z" fill="#000FFF"/>
<path d="M39.6207 204H0V219.111H39.6207V204Z" fill="#000FFF"/>
<path d="M150.559 340C146.18 340 142.634 336.619 142.634 332.444V324.889C142.634 308.871 111.671 302.222 95.0896 302.222C78.5083 302.222 47.5448 308.871 47.5448 324.889V332.444C47.5448 336.619 43.9987 340 39.6207 340C35.2426 340 31.6965 336.619 31.6965 332.444V324.889C31.6965 297.368 70.5842 287.111 95.0896 287.111C119.595 287.111 158.483 297.368 158.483 324.889V332.444C158.483 336.619 154.937 340 150.559 340Z" fill="#000FFF"/>
<path d="M95.0895 279.555C73.2387 279.555 55.4689 262.3 55.4689 241.088V234.911C55.4689 213.699 73.2387 196.444 95.0895 196.444C116.94 196.444 134.71 213.699 134.71 234.911V241.088C134.71 262.3 116.94 279.555 95.0895 279.555ZM95.0895 211.555C81.985 211.555 71.3171 222.029 71.3171 234.911V241.088C71.3171 253.97 81.985 264.444 95.0895 264.444C108.194 264.444 118.862 253.97 118.862 241.088V234.911C118.862 222.029 108.194 211.555 95.0895 211.555Z" fill="#000FFF"/>
<path d="M245.648 143.556H229.8V158.667H245.648V143.556Z" fill="#000FFF"/>
<path d="M245.648 128.444H229.8C229.8 114.061 233.732 105.967 244.816 97.5139C249.065 94.2839 253.572 88.1356 253.572 83.1111C253.572 78.7006 252.057 74.9228 249.184 72.1839C246.312 69.445 242.35 68 237.724 68C227.948 68 221.876 73.7895 221.876 83.1111H206.027C206.027 65.6011 219.36 52.8889 237.724 52.8889C246.52 52.8889 254.563 55.9489 260.387 61.5023C266.211 67.0556 269.421 74.7245 269.421 83.1111C269.421 93.4717 262.031 103.738 254.711 109.319C247.342 114.939 245.648 118.509 245.648 128.444Z" fill="#000FFF"/>
<path d="M169.854 249.352C164.396 249.352 160.454 247.274 158.532 245.99C152.46 241.919 149.32 234.742 150.539 227.715C150.875 225.769 151.212 223.881 151.539 222.029C154.055 207.759 156.096 196.237 154.956 184.894C126.935 164.796 110.938 136.132 110.938 105.778C110.938 47.4489 169.586 0 241.686 0C313.786 0 372.434 47.4489 372.434 105.778C372.434 164.107 313.786 211.556 241.686 211.556C236.961 211.556 232.128 211.301 226.749 210.772C215.596 224.032 203.987 234.402 182.027 246.075C177.441 248.512 173.34 249.352 169.854 249.352ZM241.686 15.1111C178.333 15.1111 126.786 55.7883 126.786 105.778C126.786 132.194 141.446 157.269 166.991 174.571L169.755 176.441L170.25 179.633C172.508 194.338 170.151 207.664 167.169 224.532C166.843 226.364 166.516 228.244 166.179 230.171C165.951 231.493 166.545 232.881 167.655 233.627C169.666 234.978 172.677 233.731 174.301 232.872C197.975 220.282 207.632 209.704 216.973 198.154L219.746 194.726L224.243 195.273C230.82 196.067 236.357 196.435 241.676 196.435C305.03 196.435 356.576 155.758 356.576 105.768C356.576 55.7789 305.039 15.1111 241.686 15.1111Z" fill="#000FFF"/>
</g>
<defs>
<clipPath id="clip0">
<rect width="372.434" height="340" fill="white"/>
</clipPath>
</defs>
</svg>
