<svg width="314" height="338" viewBox="0 0 314 338" fill="none" xmlns="http://www.w3.org/2000/svg">
<path d="M205.581 229.859C202.333 229.859 199.084 228.948 196.225 227.255C192.067 224.781 189.208 220.744 188.038 216.056C186.869 211.368 187.648 206.42 190.117 202.253C192.586 198.086 196.615 195.221 201.293 194.049C211.039 191.705 220.916 197.695 223.255 207.462C224.424 212.15 223.645 217.098 221.176 221.265C218.706 225.432 214.678 228.297 210 229.469C208.57 229.599 207.011 229.859 205.581 229.859ZM205.581 203.295C204.932 203.295 204.282 203.425 203.632 203.555C201.553 204.076 199.734 205.378 198.564 207.331C197.395 209.154 197.135 211.368 197.655 213.582C198.694 218.009 203.242 220.744 207.531 219.572C209.61 219.051 211.429 217.749 212.599 215.796C213.768 213.973 214.028 211.759 213.508 209.545C212.729 205.899 209.35 203.295 205.581 203.295Z" fill="#000FFF"/>
<path d="M233.131 337.289C232.221 337.289 231.312 337.029 230.532 336.508L211.559 324.919C209.22 323.486 208.44 320.361 209.87 318.017L213.898 311.246L207.531 307.339C205.192 305.907 204.412 302.781 205.841 300.438L209.35 294.708L202.723 290.671C201.553 290.02 200.773 288.848 200.513 287.546C200.253 286.244 200.383 284.942 201.163 283.77L206.491 275.045L198.694 270.227C197.524 269.576 196.745 268.404 196.485 267.102L194.406 258.507C181.021 254.21 170.885 243.402 167.506 229.729C164.907 219.312 166.596 208.373 172.184 199.258C177.772 190.012 186.609 183.632 197.005 181.027C207.401 178.423 218.187 180.116 227.413 185.715C236.64 191.315 243.007 200.17 245.606 210.587C248.985 224.26 244.956 238.454 235.21 248.35L250.414 310.595C250.674 311.897 250.544 313.199 249.895 314.371L237.679 334.555C236.51 336.508 234.82 337.289 233.131 337.289ZM221.046 319.059L231.572 325.439L240.148 311.246L224.944 248.741C224.294 246.788 224.814 244.704 226.373 243.402C234.95 235.849 238.589 224.39 235.86 213.322C233.911 205.508 229.102 198.867 222.215 194.57C215.328 190.403 207.141 189.101 199.344 191.054C191.547 193.008 184.919 197.826 180.631 204.727C176.472 211.629 175.173 219.832 177.122 227.646C179.851 238.714 188.428 247.309 199.604 249.913C201.423 250.304 202.852 251.736 203.242 253.559L205.581 262.935L215.848 269.185C217.017 269.836 217.797 271.008 218.057 272.31C218.317 273.613 218.187 274.915 217.407 276.087L212.079 284.811L218.706 288.848C221.046 290.281 221.825 293.406 220.396 295.75L216.887 301.479L223.255 305.386C225.594 306.818 226.373 309.943 224.944 312.287L221.046 319.059Z" fill="#000FFF"/>
<path d="M140.736 337.679C140.086 337.679 139.567 337.549 138.917 337.418C137.617 336.897 136.708 335.986 136.188 334.814L126.961 314.5C125.792 312.026 126.961 309.031 129.431 307.859L136.578 304.603L133.459 297.702C132.939 296.53 132.809 295.097 133.329 293.925C133.849 292.623 134.759 291.712 135.928 291.191L142.036 288.456L138.787 281.294C137.617 278.82 138.787 275.825 141.256 274.653L150.612 270.486L146.844 262.022C146.324 260.85 146.194 259.418 146.714 258.246L149.833 250.042C141.256 238.973 138.917 224.389 143.855 211.107C148.923 197.694 160.749 187.928 174.913 185.584C177.642 185.063 180.241 187.016 180.631 189.621C181.151 192.355 179.202 194.959 176.603 195.35C165.947 197.173 157.11 204.465 153.341 214.622C149.313 225.3 151.652 237.28 159.319 245.745C160.619 247.177 161.008 249.13 160.359 250.823L156.98 259.808L161.918 270.877C163.088 273.351 161.918 276.346 159.449 277.518L150.093 281.685L153.341 288.847C154.511 291.321 153.341 294.316 150.872 295.488L144.765 298.223L147.883 305.124C149.053 307.598 147.883 310.593 145.414 311.765L138.267 315.021L143.335 326.22L158.409 319.318L181.151 258.636C182.06 256.032 185.049 254.73 187.518 255.771C190.117 256.683 191.417 259.678 190.377 262.152L166.856 324.787C166.336 326.089 165.427 327.001 164.257 327.522L142.685 337.288C142.036 337.418 141.386 337.679 140.736 337.679Z" fill="#000FFF"/>
<path d="M198.045 215.535C195.965 215.535 194.016 214.233 193.366 212.149C192.457 209.545 193.886 206.68 196.485 205.769C210.26 201.081 219.486 188.059 219.486 173.475C219.486 165.792 217.017 158.5 212.209 152.379C210.52 150.166 210.91 147.04 212.989 145.347C215.198 143.655 218.317 144.045 220.006 146.129C226.114 153.942 229.363 163.318 229.363 173.344C229.363 192.226 217.407 209.024 199.604 215.145C199.214 215.535 198.694 215.535 198.045 215.535Z" fill="#000FFF"/>
<path d="M151.652 198.085C149.963 198.085 148.274 197.174 147.364 195.611C143.595 188.97 141.516 181.417 141.516 173.604C141.516 149.253 161.269 129.46 185.569 129.46C188.298 129.46 190.507 131.674 190.507 134.409C190.507 137.143 188.298 139.357 185.569 139.357C166.856 139.357 151.522 154.592 151.522 173.474C151.522 179.464 153.082 185.324 156.071 190.402C157.5 192.746 156.59 195.872 154.251 197.174C153.342 197.825 152.432 198.085 151.652 198.085Z" fill="#000FFF"/>
<path d="M202.206 150.035C197.917 150.035 192.719 148.081 189.73 143.914C187.521 140.919 184.792 134.539 190.51 124.382L191.55 122.689C198.307 110.839 202.725 102.896 202.466 98.989C201.816 95.4731 189.86 75.5497 179.464 70.341C177.385 69.2993 175.826 69.0388 174.786 69.6899C165.56 74.1173 166.079 80.7585 167.769 89.0924C169.068 95.7336 176.605 110.448 178.685 112.532C179.464 113.183 181.933 115.266 183.493 125.554C183.883 128.288 182.063 130.893 179.334 131.283C176.605 131.674 174.006 129.851 173.617 127.116C172.967 122.949 172.187 120.475 171.797 119.694C167.379 115.397 159.452 98.2077 158.023 91.0457C156.723 84.4046 153.604 68.9086 170.498 60.7049C173.487 59.2725 178.555 58.3609 185.312 62.2675C198.047 69.5597 211.952 91.5666 212.472 98.3379C212.992 105.37 208.573 113.313 200.386 127.767L199.347 129.46C198.047 131.674 196.228 135.841 197.917 138.185C198.957 139.617 201.426 140.268 202.596 140.268C207.794 136.622 224.167 110.318 224.947 101.333C225.467 94.822 215.461 76.9821 208.183 66.4345C206.884 64.6114 207.014 62.2675 208.443 60.4444C209.873 58.7516 212.082 58.1005 214.161 58.8818C214.681 59.1422 271.729 81.5398 291.742 87.7903C301.228 90.6551 303.567 89.0924 303.567 89.0924C303.697 88.832 303.827 86.6183 301.488 82.4513C292.261 70.6014 137.75 7.83623 100.065 7.83623C68.4867 7.83623 25.3431 28.8014 11.8283 35.7029L35.9991 85.3161L93.5671 49.2456C95.7763 47.8132 98.7651 48.4643 100.325 50.678C106.432 59.4027 117.478 72.5547 123.066 74.3778C132.422 77.3728 137.62 86.3579 144.768 98.8588C146.847 102.375 149.056 106.281 151.655 110.448C156.593 118.392 160.751 124.772 164.39 129.59C166.079 131.804 165.56 134.929 163.35 136.622C161.141 138.315 158.023 137.794 156.333 135.58C152.435 130.372 148.146 123.861 143.078 115.657C140.479 111.36 138.14 107.453 136.061 103.807C129.563 92.7386 125.405 85.5766 119.687 83.7535C110.98 80.8887 100.065 67.346 94.6067 60.0538L36.3889 96.6451C35.0894 97.4264 33.6599 97.5566 32.3604 97.166C31.0609 96.7753 29.8914 95.8638 29.2416 94.5616L0.522579 35.5727C-0.646975 33.2288 0.262678 30.2338 2.60179 29.0618C4.94089 27.7596 59.65 -2.3208 99.8047 -2.3208C139.44 -2.3208 301.488 62.2675 309.935 77.3728C314.093 84.665 314.483 91.0457 310.974 95.2127C305.256 102.375 292.651 98.4682 288.493 97.166C274.198 92.7386 242.75 80.7585 224.297 73.5965C229.625 82.842 235.213 94.5616 234.563 101.984C233.524 113.313 213.251 147.821 204.805 149.774C204.025 149.904 203.115 150.035 202.206 150.035Z" fill="#000FFF"/>
<path d="M294.338 76.8521C292.129 76.8521 290.18 75.4197 289.53 73.3362C288.75 70.7319 290.18 67.8671 292.908 67.0858C295.248 66.4347 298.106 64.7418 298.756 63.3094C298.756 63.1792 298.886 62.9188 298.626 62.3979C293.818 56.2776 230.792 29.062 181.671 29.3225C178.942 29.4527 176.603 27.1088 176.603 24.3742C176.603 21.6396 178.812 19.2957 181.541 19.2957C181.931 19.2957 182.191 19.2957 182.581 19.2957C231.442 19.2957 302.395 47.0322 307.593 58.1007C309.022 61.2259 309.152 64.4814 307.853 67.4764C305.124 73.5967 297.327 76.2011 295.767 76.7219C295.248 76.7219 294.728 76.8521 294.338 76.8521Z" fill="#000FFF"/>
</svg>
