<svg width="319" height="342" viewBox="0 0 319 342" fill="none" xmlns="http://www.w3.org/2000/svg">
<path d="M159.116 247.229C138.935 247.229 122.511 230.821 122.511 210.66C122.511 190.499 138.935 174.091 159.116 174.091C179.296 174.091 195.72 190.499 195.72 210.66C195.72 230.821 179.304 247.229 159.116 247.229ZM159.116 184.595C144.732 184.595 133.025 196.29 133.025 210.66C133.025 225.03 144.732 236.724 159.116 236.724C173.499 236.724 185.206 225.03 185.206 210.66C185.206 196.283 173.499 184.595 159.116 184.595Z" fill="#000FFF"/>
<path d="M111.036 341.291C108.246 341.291 105.919 339.099 105.785 336.284L102.316 262.523L82.2047 95.9602C82.1977 95.8972 82.1907 95.8412 82.1837 95.7781C81.3496 86.0722 88.2682 77.4237 97.9346 76.0861C107.664 74.7416 116.686 81.2612 118.459 90.9182L137.308 192.34C137.841 195.191 135.955 197.936 133.102 198.461C130.242 198.986 127.502 197.109 126.976 194.259L108.12 92.8299C107.363 88.7053 103.521 85.9251 99.3716 86.4994C95.2849 87.0596 92.3478 90.7011 92.6562 94.8048L112.774 261.459C112.788 261.585 112.802 261.711 112.809 261.844L116.286 335.801C116.419 338.7 114.183 341.158 111.281 341.291C111.204 341.291 111.12 341.291 111.036 341.291Z" fill="#000FFF"/>
<path d="M206.943 341.291C206.852 341.291 206.761 341.291 206.662 341.284C203.76 341.137 201.531 338.665 201.685 335.766L205.527 261.809C205.534 261.69 205.541 261.578 205.555 261.466L225.315 94.8118C225.631 90.7081 222.694 87.0596 218.6 86.4994C214.443 85.9252 210.609 88.7053 209.859 92.816L191.003 193.566C190.47 196.416 187.722 198.3 184.869 197.761C182.016 197.228 180.138 194.483 180.67 191.633L199.527 90.9042C201.293 81.2683 210.314 74.7556 220.044 76.0932C229.71 77.4237 236.622 86.0722 235.795 95.7852C235.788 95.8412 235.781 95.8972 235.781 95.9532L216.034 262.53L212.2 336.312C212.039 339.12 209.719 341.291 206.943 341.291Z" fill="#000FFF"/>
<path d="M116.174 52.8296C114.092 52.8296 112.122 51.5901 111.295 49.5452L97.3809 15.1682C96.2944 12.4791 97.5912 9.41889 100.283 8.33344C102.975 7.248 106.038 8.54353 107.124 11.2326L121.039 45.6096C122.125 48.2987 120.828 51.359 118.137 52.4444C117.499 52.7035 116.833 52.8296 116.174 52.8296Z" fill="#000FFF"/>
<path d="M75.16 75.3016C73.8142 75.3016 72.4683 74.7904 71.4449 73.761L44.6748 47.0241C42.6209 44.9722 42.6209 41.6459 44.6748 39.5941C46.7286 37.5422 50.0582 37.5422 52.1121 39.5941L78.8752 66.3309C80.929 68.3828 80.929 71.7091 78.8752 73.761C77.8518 74.7904 76.5059 75.3016 75.16 75.3016Z" fill="#000FFF"/>
<path d="M159.725 48.3197C156.823 48.3197 154.468 45.9667 154.468 43.0675V5.25214C154.468 2.35296 156.823 0 159.725 0C162.627 0 164.983 2.35296 164.983 5.25214V43.0675C164.983 45.9667 162.627 48.3197 159.725 48.3197Z" fill="#000FFF"/>
<path d="M203.396 52.8296C202.737 52.8296 202.071 52.7035 201.426 52.4444C198.734 51.359 197.438 48.2987 198.524 45.6096L212.438 11.2326C213.525 8.54351 216.588 7.24098 219.28 8.33343C221.972 9.41887 223.268 12.4791 222.182 15.1682L208.268 49.5452C207.447 51.59 205.478 52.8296 203.396 52.8296Z" fill="#000FFF"/>
<path d="M244.417 75.3016C243.071 75.3016 241.725 74.7904 240.702 73.761C238.648 71.7091 238.648 68.3828 240.702 66.3309L267.465 39.5941C269.519 37.5422 272.848 37.5422 274.902 39.5941C276.956 41.6459 276.956 44.9722 274.902 47.0241L248.139 73.761C247.102 74.7904 245.756 75.3016 244.417 75.3016Z" fill="#000FFF"/>
<path d="M49.3823 124.547L47.1784 131.943L60.2385 135.827L62.4423 128.431L49.3823 124.547Z" fill="#000FFF"/>
<path d="M242.584 23.6519L245.72 30.7046L258.173 25.1789L255.038 18.1262L242.584 23.6519Z" fill="#000FFF"/>
<path d="M67.1893 13.1989L64.9854 20.595L78.0454 24.4789L80.2493 17.0828L67.1893 13.1989Z" fill="#000FFF"/>
<path d="M295.01 173.71L292.806 181.106L305.866 184.99L308.07 177.594L295.01 173.71Z" fill="#000FFF"/>
<path d="M281.135 91.2332L284.998 97.9163L296.798 91.1095L292.936 84.4264L281.135 91.2332Z" fill="#000FFF"/>
<path d="M11.5499 131.626L16.5254 137.529L26.9486 128.76L21.9731 122.857L11.5499 131.626Z" fill="#000FFF"/>
<path d="M303.601 125.992L308.577 131.895L319 123.126L314.025 117.223L303.601 125.992Z" fill="#000FFF"/>
<path d="M137.191 92.5996L142.167 98.5024L152.59 89.734L147.614 83.8311L137.191 92.5996Z" fill="#000FFF"/>
<path d="M-1.41582e-06 39.1579L4.97549 45.0608L15.3987 36.2923L10.4232 30.3895L-1.41582e-06 39.1579Z" fill="#000FFF"/>
<path d="M315.381 50.3209C316.899 46.8894 315.345 42.8783 311.91 41.3619C308.475 39.8455 304.46 41.3981 302.942 44.8296C301.425 48.2612 302.979 52.2722 306.414 53.7886C309.848 55.305 313.863 53.7524 315.381 50.3209Z" fill="#000FFF"/>
<path d="M277.1 138.669C278.667 135.26 277.17 131.227 273.758 129.662C270.345 128.097 266.308 129.592 264.742 133.002C263.175 136.411 264.671 140.444 268.084 142.009C271.497 143.574 275.533 142.079 277.1 138.669Z" fill="#000FFF"/>
<path d="M277.271 221.36C278.61 224.868 276.858 228.79 273.346 230.135C269.834 231.472 265.909 229.721 264.563 226.213C263.224 222.705 264.976 218.783 268.488 217.438C272 216.101 275.933 217.859 277.271 221.36Z" fill="#000FFF"/>
<path d="M26.1252 233.473C29.8801 233.433 32.8914 230.359 32.8512 226.608C32.811 222.857 29.7346 219.849 25.9797 219.889C22.2249 219.929 19.2135 223.002 19.2537 226.753C19.2939 230.505 22.3704 233.513 26.1252 233.473Z" fill="#000FFF"/>
<path d="M189.637 62.4882C189.727 58.7378 186.758 55.6239 183.004 55.5331C179.25 55.4423 176.133 58.409 176.042 62.1595C175.951 65.9099 178.921 69.0238 182.675 69.1146C186.429 69.2054 189.546 66.2386 189.637 62.4882Z" fill="#000FFF"/>
<path d="M32.2831 93.91C33.8009 90.4785 32.2468 86.4674 28.8119 84.951C25.377 83.4347 21.362 84.9872 19.8442 88.4187C18.3263 91.8503 19.8804 95.8613 23.3153 97.3777C26.7502 98.8941 30.7652 97.3415 32.2831 93.91Z" fill="#000FFF"/>
<path d="M59.4514 177.473C60.7903 180.982 59.0378 184.903 55.526 186.248C52.0141 187.585 48.0887 185.835 46.7428 182.326C45.4039 178.818 47.1564 174.896 50.6682 173.552C54.1801 172.214 58.1126 173.972 59.4514 177.473Z" fill="#000FFF"/>
</svg>
