<svg width="123" height="43" viewBox="0 0 123 43" fill="none" xmlns="http://www.w3.org/2000/svg">
<path d="M30.2307 42.1862H9.72484C9.32974 42.1862 8.96292 41.9784 8.7583 41.6386C8.55367 41.2989 8.53953 40.8756 8.72247 40.5226L16.9499 24.6288L10.7989 25.9983C10.1888 26.134 9.58528 25.7468 9.45044 25.1327C9.31559 24.5187 9.70032 23.9113 10.3104 23.7756L18.8292 21.8784C19.2583 21.7826 19.7033 21.9458 19.9711 22.297C20.2389 22.6481 20.2795 23.1227 20.0768 23.5156L11.59 39.9095H29.101V9.71067H2.26124V40.83C2.26124 41.4583 1.75487 41.968 1.13062 41.968C0.506374 41.968 0 41.4602 0 40.8319V8.5737C0 7.94543 0.506374 7.43579 1.13062 7.43579H30.2307C30.8549 7.43579 31.3613 7.94543 31.3613 8.5737V41.0483C31.3622 41.6766 30.8558 42.1862 30.2307 42.1862Z" fill="white"/>
<path d="M22.1645 32.7023C21.7043 32.7023 21.2715 32.4176 21.1036 31.9573L17.9372 23.3077C17.7212 22.7183 18.0211 22.0635 18.6076 21.8462C19.1941 21.6288 19.8438 21.9306 20.0598 22.5209L23.2263 31.1706C23.4422 31.7599 23.1423 32.4148 22.5558 32.6321C22.4266 32.6796 22.2946 32.7023 22.1645 32.7023Z" fill="white"/>
<path d="M23.2951 9.33297C22.8368 9.33297 22.4663 8.95904 22.4663 8.49875C22.4663 4.73292 19.4224 1.67033 15.6816 1.67033C11.9408 1.67033 8.89598 4.73292 8.89598 8.4978C8.89598 8.95904 8.52445 9.33202 8.06711 9.33202C7.60883 9.33202 7.23824 8.95809 7.23824 8.4978C7.2373 3.81234 11.0252 0 15.6806 0C20.3361 0 24.124 3.81234 24.124 8.4978C24.1249 8.95904 23.7534 9.33297 23.2951 9.33297Z" fill="white"/>
<path d="M37.7433 12.2538C38.6797 11.2801 40.0008 10.6461 41.4595 10.6461C43.916 10.6461 45.8509 12.1912 46.4658 14.6331H44.9306C44.362 13.0102 43.0418 12.1912 41.4605 12.1912C40.4317 12.1912 39.4953 12.6391 38.8192 13.35C38.1431 14.0608 37.7141 15.0193 37.7141 16.1316C37.7141 17.2136 38.144 18.1721 38.8192 18.8829C39.4953 19.5938 40.4317 20.0417 41.4605 20.0417C43.088 20.0417 44.4704 19.0993 45.023 17.4613H46.5431C45.9292 19.9184 43.9631 21.5877 41.4605 21.5877C40.0017 21.5877 38.6815 20.9699 37.7442 19.98C36.8229 18.9911 36.2091 17.6311 36.2091 16.1316C36.2081 14.6027 36.822 13.2427 37.7433 12.2538Z" fill="#00C6FF"/>
<path d="M51.7011 12.1925C52.6837 11.1884 54.0661 10.5544 55.5711 10.5544C57.0911 10.5544 58.4575 11.1884 59.4561 12.1925C60.4236 13.1966 61.0535 14.5727 61.0535 16.1026C61.0535 17.6325 60.4236 19.0076 59.4561 20.0127C58.4584 21.0329 57.0911 21.6507 55.5711 21.6507C54.0661 21.6507 52.6846 21.0329 51.7011 20.0127C50.7336 19.0086 50.1037 17.6325 50.1037 16.1026C50.1037 14.5727 50.7336 13.1966 51.7011 12.1925ZM58.35 13.3048C57.6286 12.5788 56.63 12.1299 55.5711 12.1299C54.5121 12.1299 53.5286 12.5778 52.8223 13.3048C52.116 14.0156 51.6709 15.0045 51.6709 16.1016C51.6709 17.1987 52.116 18.1877 52.8223 18.8985C53.5286 19.6245 54.5112 20.0734 55.5711 20.0734C56.631 20.0734 57.6286 19.6255 58.35 18.8985C59.0412 18.1877 59.4863 17.2139 59.4863 16.1016C59.4863 14.9894 59.0412 14.0156 58.35 13.3048Z" fill="#00C6FF"/>
<path d="M65.0903 21.5111V10.6777L66.2879 10.6929L71.5242 18.3119V10.6929H73.0594V21.5111H71.8307L66.6406 13.9539V21.5111H65.0903V21.5111Z" fill="#00C6FF"/>
<path d="M78.6955 19.951H83.6857V21.5122H77.1292V10.7091H83.6706V12.2703H78.6955V15.3149H83.5631V16.8912H78.6955V19.951Z" fill="#00C6FF"/>
<path d="M88.7834 12.2542C89.7198 11.2805 91.0408 10.6465 92.4996 10.6465C94.956 10.6465 96.891 12.1915 97.5058 14.6334H95.9707C95.403 13.0106 94.0819 12.1915 92.5006 12.1915C91.4718 12.1915 90.5354 12.6395 89.8593 13.3503C89.1832 14.0612 88.7541 15.0197 88.7541 16.132C88.7541 17.2139 89.1841 18.1725 89.8593 18.8833C90.5354 19.5941 91.4718 20.0421 92.5006 20.0421C94.1281 20.0421 95.5105 19.0997 96.0631 17.4616H97.5832C96.9693 19.9187 95.0032 21.5881 92.5006 21.5881C91.0418 21.5881 89.7216 20.9703 88.7843 19.9804C87.863 18.9915 87.2492 17.6315 87.2492 16.132C87.2473 14.6031 87.8621 13.2431 88.7834 12.2542Z" fill="#00C6FF"/>
<path d="M103.647 21.5577V12.2694H100.392V10.693H108.439V12.2694H105.199V21.5577H103.647Z" fill="#00C6FF"/>
<path d="M116.853 18.3281H112.999C112.584 19.317 112.046 20.6153 111.709 21.5112H110.035L114.35 10.5535H115.486L119.801 21.5112H118.143L116.853 18.3281ZM113.582 16.8599H116.253L114.933 13.0428L113.582 16.8599Z" fill="#00C6FF"/>
<path d="M39.5821 38.8192V28.1139H35.83V26.2965H45.1041V28.1139H41.37V38.8202H39.5821V38.8192Z" fill="white"/>
<path d="M55.6531 28.0968H53.3523V36.9676H55.6531V38.767H49.2635V36.9676H51.5644V28.0968H49.2635V26.3154H55.6531V28.0968Z" fill="white"/>
<path d="M61.8126 36.9676H67.5647V38.767H60.0068V26.3154H67.5468V28.1148H61.8126V31.6244H67.4232V33.4409H61.8126V36.9676Z" fill="white"/>
<path d="M71.9014 38.7669V26.2793L73.2819 26.2973L79.3179 35.0798V26.2973H81.0878V38.7669H79.6715L73.6893 30.0565V38.7669H71.9014V38.7669Z" fill="white"/>
<path d="M90.3091 26.3154C94.362 26.3154 96.3979 29.4331 96.3979 32.5497C96.3979 35.6674 94.362 38.767 90.3091 38.767H85.8668V26.3154H90.3091ZM90.3091 36.9676C93.1767 36.9676 94.6279 34.7591 94.6279 32.5497C94.6279 30.3404 93.1767 28.1139 90.3091 28.1139H87.6547V36.9676H90.3091Z" fill="white"/>
<path d="M107.177 35.0968H102.735C102.257 36.2366 101.637 37.7333 101.248 38.7668H99.3183L104.291 26.1368H105.601L110.574 38.7668H108.663L107.177 35.0968ZM103.407 33.4047H106.487L104.965 29.0049L103.407 33.4047Z" fill="white"/>
<path d="M120.894 29.5212C120.646 28.3985 119.443 27.9183 118.363 27.9354C117.532 27.9534 116.611 28.2381 116.115 28.8797C115.867 29.2004 115.779 29.6104 115.815 30.0375C115.903 31.3197 117.302 31.4801 118.628 31.6053C120.328 31.8189 122.433 32.2649 122.911 34.2598C122.964 34.5275 123 34.8302 123 35.0789C123 37.4838 120.628 38.8732 118.398 38.8732C116.487 38.8732 114.168 37.7334 113.938 35.5069L113.92 35.1681L115.726 35.132L115.744 35.3996V35.3285C115.867 36.4863 117.266 37.0918 118.416 37.0918C119.744 37.0918 121.195 36.344 121.195 35.0608C121.195 34.9365 121.177 34.7932 121.142 34.6338C120.93 33.6895 119.655 33.5291 118.416 33.4047C116.487 33.2092 114.222 32.7812 114.027 30.1808V30.1988C113.956 29.3618 114.168 28.5247 114.699 27.83C115.531 26.7434 117.018 26.173 118.451 26.173C120.363 26.173 122.345 27.1704 122.663 29.451L120.894 29.5212Z" fill="white"/>
</svg>
