<svg width="169" height="59" viewBox="0 0 169 59" fill="none" xmlns="http://www.w3.org/2000/svg">
<path d="M41.5364 58.8885H13.3618C12.8189 58.8885 12.3149 58.6029 12.0338 58.1361C11.7526 57.6693 11.7332 57.0877 11.9845 56.6026L23.2888 34.7649L14.8375 36.6465C13.9992 36.833 13.17 36.301 12.9847 35.4573C12.7995 34.6136 13.3281 33.7791 14.1664 33.5926L25.871 30.9859C26.4605 30.8542 27.0721 31.0785 27.44 31.561C27.808 32.0435 27.8637 32.6955 27.5851 33.2353L15.9245 55.7603H39.9843V14.2676H3.10691V57.0251C3.10691 57.8884 2.41116 58.5886 1.55345 58.5886C0.69575 58.5886 0 57.891 0 57.0277V12.7054C0 11.8422 0.69575 11.142 1.55345 11.142H41.5364C42.3941 11.142 43.0899 11.8422 43.0899 12.7054V57.325C43.0912 58.1883 42.3954 58.8885 41.5364 58.8885Z" fill="white"/>
<path d="M30.4537 45.8578C29.8214 45.8578 29.2267 45.4666 28.9961 44.8342L24.6454 32.9497C24.3487 32.1399 24.7607 31.2402 25.5666 30.9416C26.3724 30.6429 27.2651 31.0576 27.5618 31.8687L31.9125 43.7532C32.2092 44.5629 31.7972 45.4627 30.9913 45.7613C30.8138 45.8265 30.6325 45.8578 30.4537 45.8578Z" fill="white"/>
<path d="M32.0071 13.7486C31.3774 13.7486 30.8683 13.2348 30.8683 12.6024C30.8683 7.42818 26.686 3.22024 21.5462 3.22024C16.4065 3.22024 12.2229 7.42818 12.2229 12.6011C12.2229 13.2348 11.7125 13.7473 11.0841 13.7473C10.4544 13.7473 9.94522 13.2335 9.94522 12.6011C9.94393 6.16332 15.1484 0.925232 21.5449 0.925232C27.9414 0.925232 33.146 6.16332 33.146 12.6011C33.1473 13.2348 32.6368 13.7486 32.0071 13.7486Z" fill="white"/>
<path d="M51.8586 17.7628C53.1452 16.425 54.9604 15.5539 56.9647 15.5539C60.3398 15.5539 62.9984 17.6768 63.8432 21.0319H61.7339C60.9526 18.8021 59.1388 17.6768 56.966 17.6768C55.5525 17.6768 54.2659 18.2923 53.337 19.2689C52.408 20.2456 51.8185 21.5626 51.8185 23.0909C51.8185 24.5774 52.4093 25.8945 53.337 26.8711C54.2659 27.8478 55.5525 28.4633 56.966 28.4633C59.2022 28.4633 61.1016 27.1685 61.8609 24.9178H63.9494C63.106 28.2938 60.4046 30.5875 56.966 30.5875C54.9617 30.5875 53.1478 29.7386 51.8599 28.3785C50.5941 27.0198 49.7507 25.1512 49.7507 23.0909C49.7494 20.9902 50.5928 19.1216 51.8586 17.7628Z" fill="#00C6FF"/>
<path d="M71.0365 17.6777C72.3865 16.2981 74.2859 15.427 76.3537 15.427C78.4423 15.427 80.3196 16.2981 81.6917 17.6777C83.021 19.0573 83.8865 20.9481 83.8865 23.0501C83.8865 25.1521 83.021 27.0416 81.6917 28.4225C80.3209 29.8242 78.4423 30.6731 76.3537 30.6731C74.2859 30.6731 72.3878 29.8242 71.0365 28.4225C69.7072 27.0429 68.8417 25.1521 68.8417 23.0501C68.8417 20.9481 69.7072 19.0573 71.0365 17.6777ZM80.1719 19.2059C79.1808 18.2084 77.8087 17.5916 76.3537 17.5916C74.8987 17.5916 73.5474 18.2071 72.577 19.2059C71.6066 20.1826 70.995 21.5414 70.995 23.0488C70.995 24.5562 71.6066 25.9149 72.577 26.8916C73.5474 27.8891 74.8975 28.5059 76.3537 28.5059C77.81 28.5059 79.1808 27.8904 80.1719 26.8916C81.1216 25.9149 81.7332 24.577 81.7332 23.0488C81.7332 21.5205 81.1216 20.1826 80.1719 19.2059Z" fill="#00C6FF"/>
<path d="M89.433 30.4812V15.5963L91.0785 15.6172L98.2731 26.0855V15.6172H100.382V30.4812H98.6942L91.5631 20.0977V30.4812H89.433V30.4812Z" fill="#00C6FF"/>
<path d="M108.126 28.3376H114.983V30.4826H105.974V15.6394H114.962V17.7845H108.126V21.9676H114.814V24.1335H108.126V28.3376Z" fill="#00C6FF"/>
<path d="M121.987 17.7624C123.273 16.4245 125.089 15.5535 127.093 15.5535C130.468 15.5535 133.127 17.6763 133.971 21.0315H131.862C131.082 18.8017 129.267 17.6763 127.094 17.6763C125.681 17.6763 124.394 18.2918 123.465 19.2685C122.536 20.2452 121.947 21.5622 121.947 23.0905C121.947 24.577 122.538 25.894 123.465 26.8707C124.394 27.8474 125.681 28.4629 127.094 28.4629C129.331 28.4629 131.23 27.168 131.989 24.9174H134.078C133.234 28.2934 130.533 30.5871 127.094 30.5871C125.09 30.5871 123.276 29.7382 121.988 28.3781C120.722 27.0194 119.879 25.1508 119.879 23.0905C119.876 20.9898 120.721 19.1212 121.987 17.7624Z" fill="#00C6FF"/>
<path d="M142.41 30.5453V17.7833H137.937V15.6174H148.993V17.7833H144.541V30.5453H142.41Z" fill="#00C6FF"/>
<path d="M160.554 26.1079H155.259C154.688 27.4666 153.95 29.2505 153.486 30.4814H151.186L157.115 15.4257H158.676L164.605 30.4814H162.326L160.554 26.1079ZM156.059 24.0906H159.73L157.916 18.846L156.059 24.0906Z" fill="#00C6FF"/>
<path d="M54.3852 54.2639V39.555H49.2299V37.0579H61.9723V39.555H56.8417V54.2652H54.3852V54.2639Z" fill="white"/>
<path d="M76.4665 39.5298H73.3051V51.7182H76.4665V54.1905H67.6873V51.7182H70.8486V39.5298H67.6873V37.0823H76.4665V39.5298Z" fill="white"/>
<path d="M84.9295 51.7182H92.8328V54.1905H82.4484V37.0823H92.8082V39.5546H84.9295V44.3767H92.6385V46.8726H84.9295V51.7182Z" fill="white"/>
<path d="M98.7914 54.1902V37.0325L100.688 37.0572L108.981 49.1243V37.0572H111.413V54.1902H109.467L101.248 42.2223V54.1902H98.7914V54.1902Z" fill="white"/>
<path d="M124.083 37.0823C129.652 37.0823 132.449 41.3659 132.449 45.6481C132.449 49.9317 129.652 54.1905 124.083 54.1905H117.98V37.0823H124.083ZM124.083 51.7182C128.023 51.7182 130.017 48.6838 130.017 45.6481C130.017 42.6125 128.023 39.5533 124.083 39.5533H120.436V51.7182H124.083Z" fill="white"/>
<path d="M147.259 49.1479H141.156C140.499 50.714 139.648 52.7704 139.113 54.1904H136.462L143.295 36.837H145.094L151.928 54.1904H149.301L147.259 49.1479ZM142.08 46.8229H146.311L144.22 40.7777L142.08 46.8229Z" fill="white"/>
<path d="M166.107 41.487C165.766 39.9444 164.113 39.2846 162.629 39.3081C161.487 39.3329 160.222 39.7241 159.541 40.6055C159.2 41.0463 159.078 41.6096 159.127 42.1964C159.249 43.9581 161.171 44.1785 162.993 44.3506C165.328 44.644 168.221 45.2568 168.878 47.9978C168.951 48.3655 169 48.7815 169 49.1231C169 52.4274 165.741 54.3365 162.677 54.3365C160.051 54.3365 156.865 52.7704 156.549 49.7112L156.524 49.2457L159.006 49.1962L159.03 49.5639V49.4661C159.2 51.057 161.121 51.8889 162.702 51.8889C164.526 51.8889 166.52 50.8614 166.52 49.0984C166.52 48.9276 166.496 48.7307 166.448 48.5116C166.156 47.2141 164.404 46.9938 162.702 46.8229C160.051 46.5543 156.939 45.9662 156.671 42.3933V42.4181C156.574 41.268 156.865 40.1179 157.595 39.1633C158.737 37.6703 160.781 36.8866 162.75 36.8866C165.376 36.8866 168.1 38.2571 168.537 41.3905L166.107 41.487Z" fill="white"/>
</svg>
